<svg width="47" height="69" viewBox="0 0 47 69" fill="none" xmlns="http://www.w3.org/2000/svg">
<path d="M36.2361 49.1961C34.955 45.3909 31.388 42.8281 27.373 42.8281H19.4258C15.4154 42.8281 11.855 45.3943 10.5868 49.1989L9.96729 51.0574C9.34129 52.9355 7.58377 54.2022 5.60416 54.2022C2.39772 54.2022 0.175349 51.0036 1.29397 47.9986L17.1914 5.29252C18.1521 2.71172 20.6158 1 23.3696 1C26.1191 1 28.5798 2.70639 29.5436 5.28135L45.531 47.9926C46.656 50.998 44.434 54.2022 41.2249 54.2022C39.251 54.2022 37.4973 52.9422 36.8674 51.0714L36.2361 49.1961ZM17.7242 27.7628C16.4406 31.6277 19.3179 35.6151 23.3904 35.6151C27.4712 35.6151 30.3494 31.6126 29.0504 27.7441C27.2251 22.3079 19.5316 22.3206 17.7242 27.7628Z" fill="white" stroke="#101214" stroke-width="2"/>
<path d="M13.5 49.4034C13.5 46.6953 15.6953 44.5 18.4034 44.5H23.5H28.3225C31.1819 44.5 33.5 46.8181 33.5 49.6775V51.774C33.5 53.3336 31.3845 53.8092 30.7169 52.3997C29.8503 50.5698 27.161 50.8615 26.707 52.8347L25.2699 59.0795C24.8376 60.9579 22.1624 60.9579 21.7301 59.0795L20.0112 51.6099C19.5845 49.7558 17.2902 49.0907 15.9341 50.421C15.0279 51.3101 13.5 50.6683 13.5 49.4034Z" fill="white" stroke="#101214"/>
</svg>
